<svg width="3000" height="450" viewBox="0 0 3000 450" fill="none" xmlns="http://www.w3.org/2000/svg">
<g clip-path="url(#clip0_1625_2036)">
<rect width="3000" height="450" fill="url(#paint0_linear_1625_2036)"/>
<ellipse opacity="0.3" cx="167.5" cy="269.081" rx="167.5" ry="269.081" transform="matrix(1 0.000341933 -0.00021285 -1 -127.941 438.233)" fill="url(#paint1_linear_1625_2036)"/>
<ellipse opacity="0.3" cx="167.5" cy="269.081" rx="167.5" ry="269.081" transform="matrix(1 0.000341933 -0.00021285 -1 2492.11 342.161)" fill="url(#paint2_linear_1625_2036)"/>
<g opacity="0.3">
<rect width="43.0189" height="504.426" transform="matrix(-1 -0.000341933 0.00021285 1 380.023 42.0162)" fill="url(#paint3_linear_1625_2036)"/>
<rect width="43.0189" height="318.077" transform="matrix(-1 -0.000341933 0.00021285 1 303.043 41.9912)" fill="url(#paint4_linear_1625_2036)"/>
</g>
<g opacity="0.3">
<rect width="43.0189" height="504.426" transform="matrix(-1 -0.000341933 0.00021285 1 3000.08 -54.0553)" fill="url(#paint5_linear_1625_2036)"/>
<rect width="43.0189" height="318.077" transform="matrix(-1 -0.000341933 0.00021285 1 2923.1 -54.0803)" fill="url(#paint6_linear_1625_2036)"/>
</g>
</g>
<defs>
<linearGradient id="paint0_linear_1625_2036" x1="507.246" y1="1.05995e-06" x2="515.896" y2="477.041" gradientUnits="userSpaceOnUse">
<stop stop-color="#E65454"/>
<stop offset="1" stop-color="#E65454"/>
</linearGradient>
<linearGradient id="paint1_linear_1625_2036" x1="289.635" y1="67.2702" x2="-48.5287" y2="325.928" gradientUnits="userSpaceOnUse">
<stop stop-color="#FF8686"/>
<stop offset="1" stop-color="#F55E2F"/>
</linearGradient>
<linearGradient id="paint2_linear_1625_2036" x1="289.635" y1="67.2702" x2="-48.5287" y2="325.928" gradientUnits="userSpaceOnUse">
<stop stop-color="#FF8686"/>
<stop offset="1" stop-color="#F55E2F"/>
</linearGradient>
<linearGradient id="paint3_linear_1625_2036" x1="21.5094" y1="0" x2="21.5094" y2="504.426" gradientUnits="userSpaceOnUse">
<stop stop-color="#FD9938" stop-opacity="0"/>
<stop offset="1" stop-color="#EA8080"/>
</linearGradient>
<linearGradient id="paint4_linear_1625_2036" x1="21.5094" y1="0" x2="21.5094" y2="318.077" gradientUnits="userSpaceOnUse">
<stop stop-color="#FD9938" stop-opacity="0"/>
<stop offset="1" stop-color="#EA8080"/>
</linearGradient>
<linearGradient id="paint5_linear_1625_2036" x1="21.5094" y1="0" x2="21.5094" y2="504.426" gradientUnits="userSpaceOnUse">
<stop stop-color="#FD9938" stop-opacity="0"/>
<stop offset="1" stop-color="#EA8080"/>
</linearGradient>
<linearGradient id="paint6_linear_1625_2036" x1="21.5094" y1="0" x2="21.5094" y2="318.077" gradientUnits="userSpaceOnUse">
<stop stop-color="#FD9938" stop-opacity="0"/>
<stop offset="1" stop-color="#EA8080"/>
</linearGradient>
<clipPath id="clip0_1625_2036">
<rect width="3000" height="450" fill="white"/>
</clipPath>
</defs>
</svg>
